<?xml version="1.0" encoding="utf-8"?>
<svg version="1.1" class="vs-cj-logo-svg vs-cj-logo" xmlns="http://www.w3.org/2000/svg" x="0px" y="0px"
     viewBox="-127 17 1024 768" xml:space="preserve">
<g>
	<path d="M338.4,372.3c28.5,0,142.3,0,142.3,0S451.1,520,451.1,520.6c-1.7,7.3-7.2,18.1-17.4,26.4l-1,0.8 c-8,6.3-19,11.2-33.7,11.2c0,0-80.4,0-100.2,0c-3.2,15-10.5,50.4-14.8,71.5c26.2,0,93.9,0,93.9,0c132,0,158.1-112.5,159.1-117 c0,0,37.7-182,44.1-213.3c-30.9,0-206.9,0.4-227.9,0.4C350.2,315.5,342.8,351.2,338.4,372.3z"/>
	<path class="st0" d="M395.2,501c3.2-14.9,10.4-50.4,14.9-71.6c-26.4,0-94.5,0-94.5,0c-2,0-16.7-1-28.2-10.3 c-1.8-1.5-3.5-3.2-5.1-5.1c-0.2-0.2-0.3-0.3-0.4-0.6c-9-11.4-6.5-26.2-5.9-29.4c0,0,21.1-102.2,21.2-102.7 c1.7-7.3,7.1-17.8,17.1-26.1l1.7-1.4c8.2-6.2,18.9-10.7,33.3-10.7c0,0,80.3,0,100.2,0c3.1-15.2,10.4-50.5,14.8-71.5 c-26.2,0-93.9,0-93.9,0c-132.1,0-158,112.2-159.2,116.8l-21,102c-0.1,0.5-8.8,47.5,17.8,79.3c17.4,20.9,46.6,31.4,86.8,31.4 C295,501,375.3,501,395.2,501z"/>
</g>
<g>
	<path d="M384.9,777.4C175.7,777.3,5.6,608.4,5.7,400.9C5.7,193.3,176,24.5,385.1,24.6 c209.2,0.1,379.3,169,379.2,376.5C764.3,608.7,594.1,777.5,384.9,777.4z M385.1,68.2C200,68.1,49.3,217.4,49.2,400.9 c-0.1,183.5,150.6,332.9,335.7,332.9c185.2,0.1,335.8-149.2,335.9-332.7C720.8,217.6,570.3,68.2,385.1,68.2z"/>
	<g>
		<path d="M333.9,378.5c26.9,0,134.2,0,134.2,0s-27.9,139.3-27.9,139.9c-1.6,6.9-6.8,17.1-16.4,24.9l-0.9,0.9 c-7.6,5.9-18,10.5-31.8,10.5c0,0-75.8,0-94.6,0c-3,14.1-9.9,47.5-14,67.4c24.7,0,88.5,0,88.5,0c124.6,0,149.2-106.1,150.1-110.4 c0,0,35.7-171.7,41.7-201.2c-29.2,0-195.2,0.3-215,0.3C345,324.9,338.1,358.5,333.9,378.5z"/>
		<path d="M387.5,499.9c3-14.1,9.8-47.5,14.1-67.6c-24.9,0-89.1,0-89.1,0c-1.9,0-15.8-0.9-26.6-9.7 c-1.7-1.4-3.3-3-4.7-4.9c-0.2-0.1-0.3-0.2-0.4-0.5c-8.4-10.8-6.1-24.7-5.5-27.7c0,0,20-96.5,20-96.9c1.7-6.9,6.8-16.8,16.2-24.7 l1.6-1.3c7.7-5.8,17.8-10.1,31.4-10.1c0,0,75.8,0,94.5,0c2.9-14.3,9.9-47.6,13.9-67.4c-24.7,0-88.6,0-88.6,0 c-124.6,0-149.1,105.8-150.2,110.2l-19.8,96.2c-0.1,0.5-8.3,44.8,16.8,74.8c16.4,19.7,43.9,29.6,81.9,29.6 C293,499.8,368.7,499.9,387.5,499.9z"/>
	</g>
</g>
</svg>
